{
	"asset":{
		"generator":"Khronos glTF Blender I/O v4.2.60",
		"version":"2.0"
	},
	"scene":0,
	"scenes":[
		{
			"name":"Scene",
			"nodes":[
				0
			]
		}
	],
	"nodes":[
		{
			"mesh":0,
			"name":"Curve"
		}
	],
	"materials":[
		{
			"doubleSided":true,
			"name":"SVGMat",
			"pbrMetallicRoughness":{
				"baseColorFactor":[
					0,
					0,
					0,
					1
				],
				"metallicFactor":0,
				"roughnessFactor":0.4000000059604645
			}
		}
	],
	"meshes":[
		{
			"name":"Curve",
			"primitives":[
				{
					"attributes":{
						"POSITION":0,
						"NORMAL":1,
						"TEXCOORD_0":2
					},
					"indices":3,
					"material":0
				}
			]
		}
	],
	"accessors":[
		{
			"bufferView":0,
			"componentType":5126,
			"count":14275,
			"max":[
				0.34315210580825806,
				0.05095332860946655,
				0.028370631858706474
			],
			"min":[
				-0.41364216804504395,
				-0.04893428087234497,
				-0.028370799496769905
			],
			"type":"VEC3"
		},
		{
			"bufferView":1,
			"componentType":5126,
			"count":14275,
			"type":"VEC3"
		},
		{
			"bufferView":2,
			"componentType":5126,
			"count":14275,
			"type":"VEC2"
		},
		{
			"bufferView":3,
			"componentType":5123,
			"count":30480,
			"type":"SCALAR"
		}
	],
	"bufferViews":[
		{
			"buffer":0,
			"byteLength":171300,
			"byteOffset":0,
			"target":34962
		},
		{
			"buffer":0,
			"byteLength":171300,
			"byteOffset":171300,
			"target":34962
		},
		{
			"buffer":0,
			"byteLength":114200,
			"byteOffset":342600,
			"target":34962
		},
		{
			"buffer":0,
			"byteLength":60960,
			"byteOffset":456800,
			"target":34963
		}
	],
	"buffers":[
		{
			"byteLength":517760,
			"uri":"untitled.bin"
		}
	]
}
