<?xml version="1.0" encoding="utf-8"?>
<!-- Generator: Adobe Illustrator 28.0.0, SVG Export Plug-In . SVG Version: 6.00 Build 0)  -->
<svg version="1.1" id="Lager_1" xmlns="http://www.w3.org/2000/svg" xmlns:xlink="http://www.w3.org/1999/xlink" x="0px" y="0px" viewBox="0 0 3026.2 831" style="enable-background:new 0 0 3026.2 831;" xml:space="preserve">
	<style type="text/css">
		.st0 {
			fill: #151515;
		}
	</style>
	<path class="st0" d="M271.8,246l-91.9,91.9c-4.8,4.8-7.5,11.3-7.5,18v119.2c0,6.8,2.7,13.3,7.5,18l91.9,91.9
	c4.8,4.8,11.3,7.5,18,7.5H409c6.8,0,13.3-2.7,18-7.5l91.9-91.9c4.8-4.8,7.5-11.3,7.5-18v-160c0-3.5,2.9-6.4,6.4-6.4h200.9
	c3.5,0,6.4,2.9,6.4,6.4V516c0,3.5-2.9,6.4-6.4,6.4H526.4v22.9c0,6.8,2.7,13.3,7.5,18l21.7,21.7c4.8,4.8,11.3,7.5,18,7.5h119.2
	c6.8,0,13.3-2.7,18-7.5l91.9-91.9c4.8-4.8,7.5-11.3,7.5-18V355.9c0-6.8-2.7-13.3-7.5-18L710.9,246c-4.8-4.8-11.3-7.5-18-7.5H573.7
	c-6.8,0-13.3,2.7-18,7.5l-91.9,91.9c-4.8,4.8-7.5,11.3-7.5,18V516c0,3.5-2.9,6.4-6.4,6.4H249c-3.5,0-6.4-2.9-6.4-6.4V315.1
	c0-3.5,2.9-6.4,6.4-6.4h119.6v-22.9c0-6.8-2.7-13.3-7.5-18L339.4,246c-4.8-4.8-11.3-7.5-18-7.5h-31.5
	C283.1,238.5,276.6,241.2,271.8,246" />
	<path class="st0" d="M1358.6,309.9h-86.2c-11.4,0-18.7,4-33.4,18.7c-14.6,14.6-18.7,22-18.7,33.4v109.6c0,11.4,4,18.7,18.7,33.4
	c14.6,14.6,22,18.7,33.4,18.7h86.2c11.4,0,18.7-4,33.4-18.7c14.6-14.6,18.7-22,18.7-33.4V362c0-11.4-4-18.7-18.7-33.4
	C1377.3,314,1370,309.9,1358.6,309.9 M1366.8,479.3c0,3.8-3.1,6.9-6.9,6.9h-88.4c-3.8,0-6.9-3.1-6.9-6.9V354.3
	c0-3.8,3.1-6.9,6.9-6.9h88.4c3.8,0,6.9,3.1,6.9,6.9V479.3z M1718.3,309.9h-74c-9.9,0-16.7,3-27.8,13.3c-1.3,1.2-3.4,1.2-4.7,0
	c-11.1-10.3-17.9-13.3-27.8-13.3h-112.2c-7.7,0-13.9,6.2-13.9,13.9v194.6c0,2.9,2.3,5.2,5.2,5.2h33.4c2.9,0,5.2-2.3,5.2-5.2V354.3
	c0-3.8,3.1-6.9,6.9-6.9h76.6c3.8,0,6.9,3.1,6.9,6.9v164.2c0,2.9,2.3,5.2,5.2,5.2h33.4c2.9,0,5.2-2.3,5.2-5.2V354.3
	c0-3.8,3.1-6.9,6.9-6.9h76.6c3.8,0,6.9,3.1,6.9,6.9v164.2c0,2.9,2.3,5.2,5.2,5.2h33.4c2.9,0,5.2-2.3,5.2-5.2V362
	c0-11.4-4-18.7-18.7-33.4C1737,314,1729.7,310,1718.3,309.9 M2565.4,310H2441c-7.7,0-13.9,6.2-13.9,13.9v194.6
	c0,2.9,2.3,5.2,5.2,5.2h33.4c2.9,0,5.2-2.3,5.2-5.2V354.3c0-3.8,3.1-6.9,6.9-6.9h88.9c3.8,0,6.9,3.1,6.9,6.9v164.2
	c0,2.9,2.3,5.2,5.2,5.2h33.4c2.9,0,5.2-2.3,5.2-5.2V362c0-11.4-4-18.7-18.7-33.4C2584.2,314,2576.8,310,2565.4,310 M2335.5,310
	h-86.2c-11.4,0-18.7,4-33.4,18.7c-14.6,14.6-18.7,22-18.7,33.4v109.6c0,11.4,4,18.7,18.7,33.4c14.6,14.6,22,18.7,33.4,18.7h95.5
	c4.3,0,7-1.5,12.5-7c5.5-5.5,7-8.2,7-12.5v-12.7c0-2.9-2.3-5.2-5.2-5.2h-110.7c-3.8,0-6.9-3.1-6.9-6.9v-46.1c0-2.6,1.5-5,7,0.5
	c5.5,5.5,8.2,7,12.5,7h112.7c7.7,0,13.9-6.2,13.9-13.9V362c0-11.4-4-18.7-18.7-33.4C2354.3,314,2347,310,2335.5,310 M2343.8,401.9
	c0,3.8-3.1,6.9-6.9,6.9h-95.3v-54.5c0-3.8,3.1-6.9,6.9-6.9h88.4c3.8,0,6.9,3.1,6.9,6.9V401.9z M2162.9,310h-57.6
	c-11.4,0-18.7,4-33.4,18.7c-14.6,14.6-18.7,22-18.7,33.4v156.4c0,2.9,2.3,5.2,5.2,5.2h33.4c2.9,0,5.2-2.3,5.2-5.2V354.3
	c0-3.8,3.1-6.9,6.9-6.9h73.3c2.9,0,5.2-2.3,5.2-5.2v-12.7c0-4.3-1.5-7-7-12.5C2169.9,311.5,2167.2,309.9,2162.9,310 M1956,309.9
	h-124.4c-7.6,0-13.9,6.2-13.9,13.9v262.4c0,2.9,2.3,5.2,5.2,5.2h19.1c4.3,0,7-1.5,12.5-7c5.5-5.5,7-8.2,7-12.5v-55.8
	c0-2.6,1.5-5,7,0.5c5.5,5.5,8.2,7,12.5,7h74.9c11.4,0,18.7-4,33.4-18.7c14.6-14.6,18.7-22,18.7-33.4V362c0-11.4-4-18.7-18.7-33.4
	C1974.7,314,1967.4,310,1956,309.9 M1964.2,479.3c0,3.8-3.1,6.9-6.9,6.9h-95.8v-132c0-3.8,3.1-6.9,6.9-6.9h88.9
	c3.8,0,6.9,3.1,6.9,6.9V479.3z M2848.6,242.2h-19.1c-4.3,0-7,1.5-12.5,7c-5.5,5.5-7,8.2-7,12.5v55.8c0,2.6-1.5,5-7-0.5
	c-5.5-5.5-8.2-7-12.5-7h-74.9c-11.4,0-18.7,4-33.4,18.7c-14.6,14.6-18.7,22-18.7,33.4v109.6c0,11.4,4,18.7,18.7,33.4
	c14.6,14.6,22,18.7,33.4,18.7h124.4c7.6,0,13.9-6.2,13.9-13.9V247.4C2853.8,244.5,2851.5,242.2,2848.6,242.2 M2809.9,479.3
	c0,3.8-3.1,6.9-6.9,6.9h-88.9c-3.8,0-6.9-3.1-6.9-6.9V354.3c0-3.8,3.1-6.9,6.9-6.9h95.8L2809.9,479.3L2809.9,479.3z M1180.7,309.9
	h-105.3c-11.4,0-18.7,4-33.4,18.7s-18.7,22-18.7,33.4v109.6c0,11.4,4,18.7,18.7,33.4c14.6,14.6,22,18.7,33.4,18.7h87.4
	c4.3,0,7-1.5,12.5-7c5.5-5.5,7-8.2,7-12.5v-12.7c0-2.9-2.3-5.2-5.2-5.2h-102.6c-3.8,0-6.9-3.1-6.9-6.9V354.2c0-3.8,3.1-6.9,6.9-6.9
	h76.6c3.8,0,6.9,3.1,6.9,6.9v13.7c0,2.9,2.3,5.2,5.2,5.2h11.7c4.3,0,7-1.5,12.5-7c5.5-5.5,7-8.2,7-12.5v-29.8
	C1194.6,316.1,1188.4,309.9,1180.7,309.9" />
</svg>